<svg xmlns="http://www.w3.org/2000/svg" width="320" height="320" viewBox="0 0 320 320">
  <rect width="320" height="320" fill="#f8f7f3"/>
  <rect x="24" y="24" width="272" height="272" fill="none" stroke="#0b0b0a" stroke-width="8"/>
  <rect x="48" y="48" width="64" height="64" fill="#0b0b0a"/>
  <rect x="64" y="64" width="32" height="32" fill="#f8f7f3"/>
  <rect x="208" y="48" width="64" height="64" fill="#0b0b0a"/>
  <rect x="224" y="64" width="32" height="32" fill="#f8f7f3"/>
  <rect x="48" y="208" width="64" height="64" fill="#0b0b0a"/>
  <rect x="64" y="224" width="32" height="32" fill="#f8f7f3"/>
  <path d="M144 48h24v24h-24zM168 72h24v24h-24zM136 112h56v16h-56zM208 136h24v24h-24zM240 136h32v16h-32zM136 152h24v48h-24zM168 152h24v24h-24zM200 184h72v24h-72zM128 224h40v24h-40zM184 224h24v48h-24zM224 232h48v40h-48z" fill="#0b0b0a"/>
  <text x="160" y="302" text-anchor="middle" font-family="Arial, sans-serif" font-size="12" letter-spacing="2" fill="#0b0b0a">CADENCE WECHAT PAY</text>
</svg>
